<svg xmlns="http://www.w3.org/2000/svg"><defs><style>.cls-1{fill:#1c1f21;fill-rule:evenodd}</style><style>.cls-1{fill:#fff;fill-rule:evenodd}</style><style>.cls-1{fill:#1c1f21;fill-rule:evenodd}</style></defs><symbol id="down" viewBox="0 0 10 6"><path id="&#x424;&#x438;&#x433;&#x443;&#x440;&#x430;_1" data-name="&#x424;&#x438;&#x433;&#x443;&#x440;&#x430; 1" class="cls-1" d="M798.587 92.006H796l5 6 5-6h-7.413z" transform="translate(-796 -92)"/></symbol><symbol id="drop" viewBox="0 0 4 8"><path id="&#x424;&#x438;&#x433;&#x443;&#x440;&#x430;_5" data-name="&#x424;&#x438;&#x433;&#x443;&#x440;&#x430; 5" class="cls-1" d="M388 643.93V646l4-4-4-4v5.931z" transform="translate(-388 -638)"/></symbol><symbol id="facebook-logo" viewBox="0 0 96.124 96.123"><path d="M72.089.02L59.624 0C45.62 0 36.57 9.285 36.57 23.656v10.907H24.037a1.96 1.96 0 0 0-1.96 1.961v15.803a1.96 1.96 0 0 0 1.96 1.96H36.57v39.876a1.96 1.96 0 0 0 1.96 1.96h16.352a1.96 1.96 0 0 0 1.96-1.96V54.287h14.654a1.96 1.96 0 0 0 1.96-1.96l.006-15.803a1.963 1.963 0 0 0-1.961-1.961H56.842v-9.246c0-4.444 1.059-6.7 6.848-6.7l8.397-.003a1.96 1.96 0 0 0 1.959-1.96V1.98A1.96 1.96 0 0 0 72.089.02z"/></symbol><symbol id="google-plus" viewBox="0 0 512 512"><path d="M448 224v-64h-32v64h-64v32h64v64h32v-64h64v-32zM160 224v64h90.528c-13.216 37.248-48.8 64-90.528 64-52.928 0-96-43.072-96-96s43.072-96 96-96c22.944 0 45.024 8.224 62.176 23.168l42.048-48.256C235.424 109.824 198.432 96 160 96 71.776 96 0 167.776 0 256s71.776 160 160 160 160-71.776 160-160v-32H160z"/></symbol><symbol id="icon-menu-cross" viewBox="0 0 23.867 23.867"><path fill="#1c1f21" d="M15.087 11.933l8.56-8.559a.75.75 0 0 0 0-1.061L21.554.22a.747.747 0 0 0-1.06 0l-8.561 8.56L3.373.22a.771.771 0 0 0-1.061 0L.22 2.313a.75.75 0 0 0 0 1.061l8.56 8.559-8.56 8.559a.751.751 0 0 0 0 1.062l2.093 2.094a.744.744 0 0 0 1.06 0l8.561-8.56 8.56 8.56a.746.746 0 0 0 1.06 0l2.093-2.094a.751.751 0 0 0 0-1.062l-8.56-8.559z"/></symbol><symbol id="icon-menu-ham" viewBox="0 0 30 19"><path class="cls-1" d="M0 0h30v3H0V0zm0 8h30v3H0V8zm0 8h30v3H0v-3z"/></symbol><symbol id="instagram" viewBox="0 0 512 512"><path d="M437 0H75C33.648 0 0 33.648 0 75v362c0 41.352 33.648 75 75 75h362c41.352 0 75-33.648 75-75V75c0-41.352-33.648-75-75-75zM257 390c-74.441 0-135-60.559-135-135s60.559-135 135-135 135 60.559 135 135-60.559 135-135 135zm150-240c-24.813 0-45-20.188-45-45s20.188-45 45-45 45 20.188 45 45-20.188 45-45 45zm0 0"/><path d="M407 90c-8.277 0-15 6.723-15 15s6.723 15 15 15 15-6.723 15-15-6.723-15-15-15zm0 0M257 150c-57.89 0-105 47.11-105 105s47.11 105 105 105 105-47.11 105-105-47.11-105-105-105zm0 0"/></symbol><symbol id="twitter" viewBox="0 0 512 512"><path fill="#fff" d="M512 97.248c-19.04 8.352-39.328 13.888-60.48 16.576 21.76-12.992 38.368-33.408 46.176-58.016-20.288 12.096-42.688 20.64-66.56 25.408C411.872 60.704 384.416 48 354.464 48c-58.112 0-104.896 47.168-104.896 104.992 0 8.32.704 16.32 2.432 23.936-87.264-4.256-164.48-46.08-216.352-109.792-9.056 15.712-14.368 33.696-14.368 53.056 0 36.352 18.72 68.576 46.624 87.232-16.864-.32-33.408-5.216-47.424-12.928v1.152c0 51.008 36.384 93.376 84.096 103.136-8.544 2.336-17.856 3.456-27.52 3.456-6.72 0-13.504-.384-19.872-1.792 13.6 41.568 52.192 72.128 98.08 73.12-35.712 27.936-81.056 44.768-130.144 44.768-8.608 0-16.864-.384-25.12-1.44C46.496 446.88 101.6 464 161.024 464c193.152 0 298.752-160 298.752-298.688 0-4.64-.16-9.12-.384-13.568 20.832-14.784 38.336-33.248 52.608-54.496z"/></symbol><symbol id="vk" viewBox="0 0 511.962 511.962"><path fill="#fff" d="M507.399 370.471c-1.376-2.304-9.888-20.8-50.848-58.816-42.88-39.808-37.12-33.344 14.528-102.176 31.456-41.92 44.032-67.52 40.096-78.464-3.744-10.432-26.88-7.68-26.88-7.68l-76.928.448s-5.696-.768-9.952 1.76c-4.128 2.496-6.784 8.256-6.784 8.256s-12.192 32.448-28.448 60.032c-34.272 58.208-48 61.28-53.6 57.664-13.024-8.416-9.76-33.856-9.76-51.904 0-56.416 8.544-79.936-16.672-86.016-8.384-2.016-14.528-3.36-35.936-3.584-27.456-.288-50.72.096-63.872 6.528-8.768 4.288-15.52 13.856-11.392 14.4 5.088.672 16.608 3.104 22.72 11.424 7.904 10.72 7.616 34.848 7.616 34.848s4.544 66.4-10.592 74.656c-10.4 5.664-24.64-5.888-55.2-58.72-15.648-27.04-27.488-56.96-27.488-56.96s-2.272-5.568-6.336-8.544c-4.928-3.616-11.84-4.768-11.84-4.768l-73.152.448s-10.976.32-15.008 5.088c-3.584 4.256-.288 13.024-.288 13.024s57.28 133.984 122.112 201.536c59.488 61.92 127.008 57.856 127.008 57.856h30.592s9.248-1.024 13.952-6.112c4.352-4.672 4.192-13.44 4.192-13.44s-.608-41.056 18.464-47.104c18.784-5.952 42.912 39.68 68.48 57.248 19.328 13.28 34.016 10.368 34.016 10.368l68.384-.96s35.776-2.208 18.816-30.336z"/></symbol></svg>